<?xml version="1.0" encoding="utf-8"?>
<!-- Generator: Adobe Illustrator 17.1.0, SVG Export Plug-In . SVG Version: 6.00 Build 0)  -->
<!DOCTYPE svg PUBLIC "-//W3C//DTD SVG 1.1//EN" "http://www.w3.org/Graphics/SVG/1.1/DTD/svg11.dtd">
<svg version="1.1" id="Layer_1" xmlns="http://www.w3.org/2000/svg" xmlns:xlink="http://www.w3.org/1999/xlink" x="0px" y="0px"
	 viewBox="6 96 600 600" enable-background="new 6 96 600 600" xml:space="preserve">
<g>
	<path fill="#323232" d="M134.4,379.4h33.7V236.2H291v-33.6H134.4V379.4L134.4,379.4z M426.5,202.6H324.6v33.6h101.9
		c9.1,0,16.9,7.6,16.9,16.9v126H477v-126C477.3,225.4,454.6,202.6,426.5,202.6z M168.2,539.8V413.5h-33.6v126.3
		c0,28.1,22.8,50.5,50.5,50.5h106v-33.6H184.9C175.8,556.7,168.2,548.9,168.2,539.8z M443.6,539.8v16.9H324.9v33.6h152.3v-50.5
		V413.5h-33.6V539.8z"/>
	<g>
		<rect x="84.6" y="394" fill="#323232" width="5.6" height="5.6"/>
		<rect x="62.1" y="394" fill="#323232" width="5.6" height="5.6"/>
		<rect x="73.3" y="394" fill="#323232" width="5.6" height="5.6"/>
		<rect x="96.1" y="394" fill="#323232" width="5.6" height="5.6"/>
		<rect x="107.3" y="394" fill="#323232" width="5.6" height="5.6"/>
		<polygon fill="#323232" points="59.5,408.1 59.5,396.9 59.5,385.7 31.4,396.9 		"/>
		<g>
			<rect x="304.2" y="166.9" fill="#323232" width="5.6" height="5.6"/>
			<rect x="304.2" y="178.4" fill="#323232" width="5.6" height="5.6"/>
			<rect x="304.2" y="155.6" fill="#323232" width="5.6" height="5.6"/>
			<rect x="304.2" y="144.4" fill="#323232" width="5.6" height="5.6"/>
			<rect x="304.2" y="133.3" fill="#323232" width="5.6" height="5.6"/>
			<polygon fill="#323232" points="318.4,128.6 307.3,100.5 296,128.6 307.3,128.6 			"/>
			<polygon fill="#323232" points="334.7,392.2 282.4,307.8 309.9,331.7 309.9,189.7 304.2,189.7 304.2,319.2 258.5,279.4 
				313.7,369.1 233.4,308 278.9,394 118.5,394 118.5,399.6 288.3,399.6 250.3,327.9 			"/>
		</g>
	</g>
	<g>
		<rect x="304.2" y="607.8" fill="#323232" width="5.6" height="5.6"/>
		<rect x="304.2" y="619" fill="#323232" width="5.6" height="5.6"/>
		<rect x="304.2" y="652.6" fill="#323232" width="5.6" height="5.6"/>
		<rect x="304.2" y="630.1" fill="#323232" width="5.6" height="5.6"/>
		<rect x="304.2" y="641.4" fill="#323232" width="5.6" height="5.6"/>
		<polygon fill="#323232" points="296,663.5 307.3,691.5 318.4,663.5 307.3,663.5 		"/>
		<g>
			<rect x="498.5" y="394" fill="#323232" width="5.6" height="5.6"/>
			<polygon fill="#323232" points="347.1,394 366,429.1 279.5,361.8 346.2,477.2 304.2,436.7 304.2,600 304.2,600 304.2,602.1 
				309.9,602.1 309.9,596.2 309.9,596.2 309.9,450.1 371.3,509.4 298.6,384 383.7,450.1 356.5,399.6 492.9,399.6 492.9,394 			"/>
			<rect x="521" y="394" fill="#323232" width="5.6" height="5.6"/>
			<rect x="509.8" y="394" fill="#323232" width="5.6" height="5.6"/>
			<rect x="543.4" y="394" fill="#323232" width="5.6" height="5.6"/>
			<rect x="532.2" y="394" fill="#323232" width="5.6" height="5.6"/>
			<polygon fill="#323232" points="552.5,385.7 552.5,396.9 552.5,408.1 580.6,396.9 			"/>
		</g>
	</g>
</g>
</svg>
