<?xml version="1.0" encoding="utf-8"?>
<!-- Generator: Adobe Illustrator 17.1.0, SVG Export Plug-In . SVG Version: 6.00 Build 0)  -->
<!DOCTYPE svg PUBLIC "-//W3C//DTD SVG 1.1//EN" "http://www.w3.org/Graphics/SVG/1.1/DTD/svg11.dtd">
<svg version="1.1" id="Layer_1" xmlns="http://www.w3.org/2000/svg" xmlns:xlink="http://www.w3.org/1999/xlink" x="0px" y="0px"
	 viewBox="0 792 600 600" enable-background="new 0 792 600 600" xml:space="preserve">
<g>
	<polygon fill="#FFFFFF" points="290,1339.5 286.6,1335 338.2,1299.1 244.5,1327.4 333.4,1267.2 243.9,1294.3 295.4,1254.3 
		295.4,1038.5 300.9,1038.5 300.9,1257.1 271.3,1280.2 367.3,1251.2 278.4,1311.3 370.7,1283.6 	"/>
	<g>
		<polygon fill="#FFFFFF" points="280.6,1345.8 277.5,1341.2 282,1337.8 285.4,1342.7 		"/>
		<polygon fill="#FFFFFF" points="271.3,1352.3 268.3,1347.8 272.7,1344.4 276.1,1349.2 		"/>
		<polygon fill="#FFFFFF" points="262,1358.7 258.9,1354 263.7,1350.9 266.8,1355.4 		"/>
		<polygon fill="#FFFFFF" points="253,1365.2 249.6,1360.4 254.4,1357.3 257.5,1361.8 		"/>
		<polygon fill="#FFFFFF" points="243.6,1371.5 240.2,1366.9 245,1363.5 248.1,1368.3 		"/>
		<polyline fill="#FFFFFF" points="239.6,1370.9 246.2,1380.2 216.5,1387 233.2,1361.5 239.6,1370.9 		"/>
	</g>
	<g>
		<rect x="295.6" y="1014.4" fill="#FFFFFF" width="5.7" height="5.7"/>
		<rect x="295.6" y="1025.8" fill="#FFFFFF" width="5.7" height="5.7"/>
		<rect x="295.6" y="1003.5" fill="#FFFFFF" width="5.7" height="5.7"/>
		<rect x="295.6" y="980.9" fill="#FFFFFF" width="5.7" height="5.7"/>
		<rect x="295.6" y="991.9" fill="#FFFFFF" width="5.7" height="5.7"/>
		<rect x="295.6" y="969.6" fill="#FFFFFF" width="5.7" height="5.7"/>
		<polygon fill="#FFFFFF" points="318.2,964.8 299.6,918.2 280.9,964.8 299.6,964.8 		"/>
	</g>
	<path fill="#FFFFFF" d="M300.1,797c-106.8,0-193.5,86.4-193.5,193.5c0,89.5,60.7,164.7,143.2,186.7v92.6l31.6-23.4v-97.7
		c-79.3-9.1-141.2-76.6-141.2-158.4c0-44.1,17.8-83.9,46.7-112.7c29.4-28.8,69.2-46.7,113.2-46.7s83.8,17.8,112.6,46.7
		c28.8,28.8,46.7,68.6,46.7,112.7c0,83-63.8,151.4-144.9,158.7v80.5l32.5-21.2v-30.8c84.1-20.9,146.3-96.9,146.3-187.5
		C493.6,883.5,406.9,797,300.1,797z"/>
</g>
</svg>
