<?xml version="1.0" encoding="utf-8"?>
<!-- Generator: Adobe Illustrator 17.1.0, SVG Export Plug-In . SVG Version: 6.00 Build 0)  -->
<!DOCTYPE svg PUBLIC "-//W3C//DTD SVG 1.1//EN" "http://www.w3.org/Graphics/SVG/1.1/DTD/svg11.dtd">
<svg version="1.1" id="Layer_3" xmlns="http://www.w3.org/2000/svg" xmlns:xlink="http://www.w3.org/1999/xlink" x="0px" y="0px"
	 viewBox="6 96 600 600" enable-background="new 6 96 600 600" xml:space="preserve">
<g>
	<polygon fill="#FFFFFF" points="389.4,421.3 393,426.7 373.5,439.6 318.8,357.8 350.5,452.8 268.1,357.2 308.9,460.6 255.8,388.7 
		238.2,400.1 234.8,394.7 257.7,380.3 293.3,431.2 248.3,324.8 337.6,429.5 299.6,320.6 374.1,429.7 	"/>
	<polygon fill="#FFFFFF" points="252.9,419.3 173.1,483 115.6,380 80.5,401.5 164.4,544.2 277.3,450.7 	"/>
	<polygon fill="#FFFFFF" points="363.1,380.6 485.3,284.4 461.7,254.7 338.5,349.4 	"/>
	<polygon fill="#FFFFFF" points="602.2,170.2 570.2,180.7 586.3,200.2 	"/>
	<polygon fill="#FFFFFF" points="9.8,621.8 41.5,610.7 25.1,591.5 	"/>
	<g>
		
			<rect x="514.7" y="193.2" transform="matrix(-0.6056 -0.7957 0.7957 -0.6056 642.1841 794.2292)" fill="#FFFFFF" width="6.3" height="89.6"/>
		
			<rect x="557.3" y="202.3" transform="matrix(-0.608 -0.7939 0.7939 -0.608 738.153 775.3827)" fill="#FFFFFF" width="6.3" height="6.3"/>
		
			<rect x="567.6" y="194.6" transform="matrix(-0.6089 -0.7933 0.7933 -0.6089 761.325 770.9155)" fill="#FFFFFF" width="6.3" height="6.3"/>
	</g>
	<g>
		
			<rect x="89.7" y="511.4" transform="matrix(0.6122 0.7907 -0.7907 0.6122 475.7648 142.2824)" fill="#FFFFFF" width="6.3" height="89.6"/>
		
			<rect x="47.6" y="586" transform="matrix(0.6145 0.7889 -0.7889 0.6145 484.3355 187.0948)" fill="#FFFFFF" width="6.3" height="6.3"/>
		
			<rect x="37.5" y="593.5" transform="matrix(0.6154 0.7882 -0.7882 0.6154 485.9401 197.4314)" fill="#FFFFFF" width="6.3" height="6.3"/>
	</g>
</g>
</svg>
