<?xml version="1.0" encoding="utf-8"?>
<!-- Generator: Adobe Illustrator 16.0.0, SVG Export Plug-In . SVG Version: 6.00 Build 0)  -->
<!DOCTYPE svg PUBLIC "-//W3C//DTD SVG 1.1//EN" "http://www.w3.org/Graphics/SVG/1.1/DTD/svg11.dtd">
<svg version="1.1" id="Layer_1" xmlns="http://www.w3.org/2000/svg" xmlns:xlink="http://www.w3.org/1999/xlink" x="0px" y="0px"
	 width="36px" height="35.833px" viewBox="0 3.458 36 35.833" enable-background="new 0 3.458 36 35.833" xml:space="preserve">
<g>
	<line fill="none" x1="5.007" y1="21.6" x2="31.705" y2="21.6"/>
	<g>
		<path d="M5.007,24.1c8.899,0,17.799,0.001,26.698-0.001c3.228,0.002,3.227-5,0-4.999c-8.899-0.001-17.797,0-26.697,0
			C1.78,19.1,1.78,24.099,5.007,24.1L5.007,24.1z"/>
	</g>
</g>
<g>
	<line fill="none" x1="5.006" y1="34.2" x2="31.704" y2="34.2"/>
	<g>
		<path d="M5.006,36.7c8.899,0,17.799,0.001,26.698-0.001c3.228,0.002,3.227-5,0-4.999c-8.899-0.001-17.797,0-26.697,0
			C1.779,31.7,1.779,36.699,5.006,36.7L5.006,36.7z"/>
	</g>
</g>
<g>
	<line fill="none" x1="5.007" y1="9" x2="31.705" y2="9"/>
	<g>
		<path d="M5.006,11.5c8.899,0,17.799,0,26.699,0c3.226,0,3.226-5,0-5c-8.899,0-17.798,0-26.698,0C1.779,6.5,1.78,11.5,5.006,11.5
			L5.006,11.5z"/>
	</g>
</g>
</svg>
