<?xml version="1.0" encoding="utf-8"?>
<!-- Generator: Adobe Illustrator 16.0.3, SVG Export Plug-In . SVG Version: 6.00 Build 0)  -->
<!DOCTYPE svg PUBLIC "-//W3C//DTD SVG 1.1//EN" "http://www.w3.org/Graphics/SVG/1.1/DTD/svg11.dtd">
<svg version="1.1" id="Layer_1" xmlns="http://www.w3.org/2000/svg" xmlns:xlink="http://www.w3.org/1999/xlink" x="0px" y="0px"
	 width="60px" height="60px" viewBox="0 0 60 60" enable-background="new 0 0 60 60" xml:space="preserve">
<g>
	<g>
		<path d="M34.921,23.369c-1.994,4-3.988,8.001-5.981,12.001c-0.717,1.438,1.439,2.705,2.158,1.262c1.994-4,3.988-8,5.981-12.001
			C37.796,23.193,35.64,21.926,34.921,23.369L34.921,23.369z"/>
	</g>
</g>
<g>
	<g>
		<path d="M22.921,24.654c2.006,3.993,4.012,7.985,6.019,11.978c0.724,1.44,2.88,0.175,2.158-1.262
			c-2.006-3.992-4.012-7.985-6.019-11.978C24.355,21.952,22.199,23.218,22.921,24.654L22.921,24.654z"/>
	</g>
</g>
</svg>
