<?xml version="1.0" encoding="utf-8"?>
<!-- Generator: Adobe Illustrator 16.0.3, SVG Export Plug-In . SVG Version: 6.00 Build 0)  -->
<!DOCTYPE svg PUBLIC "-//W3C//DTD SVG 1.1//EN" "http://www.w3.org/Graphics/SVG/1.1/DTD/svg11.dtd">
<svg version="1.1" id="Layer_1" xmlns="http://www.w3.org/2000/svg" xmlns:xlink="http://www.w3.org/1999/xlink" x="0px" y="0px"
	 width="60px" height="60px" viewBox="0 0 60 60" enable-background="new 0 0 60 60" xml:space="preserve">
<g>
	<g>
		<path d="M23.384,25.087c3.997,2,7.994,4,11.991,6c1.438,0.719,2.704-1.438,1.262-2.159c-3.997-2-7.994-4-11.991-6
			C23.208,22.21,21.942,24.366,23.384,25.087L23.384,25.087z"/>
	</g>
</g>
<g>
	<g>
		<path d="M24.65,37.087c3.996-2,7.992-3.999,11.987-5.999c1.442-0.722,0.176-2.878-1.262-2.159c-3.996,2-7.991,4-11.987,6
			C21.946,35.65,23.213,37.807,24.65,37.087L24.65,37.087z"/>
	</g>
</g>
</svg>
